<svg width="39" height="35" viewBox="0 0 39 35" fill="none" xmlns="http://www.w3.org/2000/svg">
<path d="M34.3012 4.69883C33.446 3.84322 32.4306 3.16449 31.313 2.70142C30.1954 2.23834 28.9975 2 27.7878 2C26.5781 2 25.3802 2.23834 24.2626 2.70142C23.145 3.16449 22.1296 3.84322 21.2744 4.69883L19.4996 6.47368L17.7247 4.69883C15.9972 2.97137 13.6543 2.0009 11.2113 2.0009C8.76832 2.0009 6.42539 2.97137 4.69793 4.69883C2.97048 6.42628 2 8.76922 2 11.2122C2 13.6552 2.97048 15.9981 4.69793 17.7256L6.47279 19.5004L19.4996 32.5272L32.5263 19.5004L34.3012 17.7256C35.1568 16.8704 35.8355 15.855 36.2986 14.7374C36.7617 13.6198 37 12.4219 37 11.2122C37 10.0025 36.7617 8.80461 36.2986 7.68702C35.8355 6.56943 35.1568 5.55403 34.3012 4.69883V4.69883Z" stroke="#F9C739" stroke-width="3" stroke-linecap="round" stroke-linejoin="round"/>
</svg>
