<?xml version="1.0" standalone="no"?><svg xmlns="http://www.w3.org/2000/svg" viewBox="0 0 1440 320"><path fill="#F9C739" fill-opacity="1" d="M0,320L6.2,320C12.3,320,25,320,37,277.3C49.2,235,62,149,74,112C86.2,75,98,85,111,96C123.1,107,135,117,148,138.7C160,160,172,192,185,197.3C196.9,203,209,181,222,176C233.8,171,246,181,258,202.7C270.8,224,283,256,295,261.3C307.7,267,320,245,332,202.7C344.6,160,357,96,369,85.3C381.5,75,394,117,406,122.7C418.5,128,431,96,443,106.7C455.4,117,468,171,480,181.3C492.3,192,505,160,517,165.3C529.2,171,542,213,554,234.7C566.2,256,578,256,591,234.7C603.1,213,615,171,628,149.3C640,128,652,128,665,154.7C676.9,181,689,235,702,261.3C713.8,288,726,288,738,282.7C750.8,277,763,267,775,240C787.7,213,800,171,812,176C824.6,181,837,235,849,240C861.5,245,874,203,886,170.7C898.5,139,911,117,923,133.3C935.4,149,948,203,960,213.3C972.3,224,985,192,997,186.7C1009.2,181,1022,203,1034,186.7C1046.2,171,1058,117,1071,85.3C1083.1,53,1095,43,1108,58.7C1120,75,1132,117,1145,138.7C1156.9,160,1169,160,1182,176C1193.8,192,1206,224,1218,245.3C1230.8,267,1243,277,1255,266.7C1267.7,256,1280,224,1292,218.7C1304.6,213,1317,235,1329,213.3C1341.5,192,1354,128,1366,106.7C1378.5,85,1391,107,1403,144C1415.4,181,1428,235,1434,261.3L1440,288L1440,0L1433.8,0C1427.7,0,1415,0,1403,0C1390.8,0,1378,0,1366,0C1353.8,0,1342,0,1329,0C1316.9,0,1305,0,1292,0C1280,0,1268,0,1255,0C1243.1,0,1231,0,1218,0C1206.2,0,1194,0,1182,0C1169.2,0,1157,0,1145,0C1132.3,0,1120,0,1108,0C1095.4,0,1083,0,1071,0C1058.5,0,1046,0,1034,0C1021.5,0,1009,0,997,0C984.6,0,972,0,960,0C947.7,0,935,0,923,0C910.8,0,898,0,886,0C873.8,0,862,0,849,0C836.9,0,825,0,812,0C800,0,788,0,775,0C763.1,0,751,0,738,0C726.2,0,714,0,702,0C689.2,0,677,0,665,0C652.3,0,640,0,628,0C615.4,0,603,0,591,0C578.5,0,566,0,554,0C541.5,0,529,0,517,0C504.6,0,492,0,480,0C467.7,0,455,0,443,0C430.8,0,418,0,406,0C393.8,0,382,0,369,0C356.9,0,345,0,332,0C320,0,308,0,295,0C283.1,0,271,0,258,0C246.2,0,234,0,222,0C209.2,0,197,0,185,0C172.3,0,160,0,148,0C135.4,0,123,0,111,0C98.5,0,86,0,74,0C61.5,0,49,0,37,0C24.6,0,12,0,6,0L0,0Z"></path></svg>